<svg width="33" height="33" viewBox="0 0 33 33" fill="none" xmlns="http://www.w3.org/2000/svg">
<g clip-path="url(#clip0_244_39)">
<path d="M24.0028 9.55096C24.0094 8.71575 23.3365 8.04289 22.5013 8.04947L11.8105 8.13365C10.9753 8.14022 10.2918 8.82376 10.2852 9.65898C10.2786 10.4942 10.9515 11.1671 11.7867 11.1605L18.8326 11.1017L8.50212 21.4321C7.90613 22.0281 7.8986 22.9836 8.48528 23.5703C9.07196 24.157 10.0274 24.1495 10.6234 23.5535L20.9506 13.2263L20.8985 20.2655C20.8919 21.1007 21.5648 21.7736 22.4 21.767C23.2352 21.7604 23.9187 21.0769 23.9253 20.2417L24.0095 9.55091L24.0028 9.55096Z" fill="#0E0E0E"/>
</g>
<defs>
<clipPath id="clip0_244_39">
<rect width="21.3333" height="24" fill="white" transform="translate(0 15.085) rotate(-45)"/>
</clipPath>
</defs>
</svg>
