<svg width="28" height="28" viewBox="0 0 28 28" fill="none" xmlns="http://www.w3.org/2000/svg">
<path d="M19.8351 1.05547L17.1883 3.70234L24.2976 10.8117L26.9445 8.16484C28.3117 6.79765 28.3117 4.58281 26.9445 3.21562L24.7898 1.05547C23.4226 -0.311722 21.2078 -0.311722 19.8406 1.05547H19.8351ZM15.9523 4.93828L3.20467 17.6914C2.63592 18.2602 2.2203 18.9656 1.99061 19.7367L0.0546747 26.3156C-0.0820441 26.7805 0.0437372 27.2781 0.3828 27.6172C0.721862 27.9562 1.21952 28.082 1.67889 27.9508L8.2578 26.0148C9.02889 25.7852 9.73436 25.3695 10.3031 24.8008L23.0617 12.0477L15.9523 4.93828Z" fill="#0E0E0E"/>
</svg>
